<svg xmlns="http://www.w3.org/2000/svg" viewBox="0 0 60 40" width="60" height="40" role="img" aria-label="Australia flag">
  <clipPath id="r"><rect width="60" height="40" rx="4"/></clipPath>
  <g clip-path="url(#r)">
    <rect width="60" height="40" fill="#00008B"/>
    <rect width="30" height="20" fill="#012169"/>
    <path d="M0 0 30 20M30 0 0 20" stroke="#fff" stroke-width="4"/>
    <path d="M15 0V20M0 10H30" stroke="#fff" stroke-width="6"/>
    <path d="M15 0V20M0 10H30" stroke="#C8102E" stroke-width="3"/>
    <path d="M0 0 30 20M30 0 0 20" stroke="#C8102E" stroke-width="2"/>
    <path d="M15 26l1.2 3 3-.4-2 2.2 1.5 2.6-2.7-1.4-2.7 1.4 1.5-2.6-2-2.2 3 .4z" fill="#fff"/>
    <circle cx="46" cy="9" r="1.6" fill="#fff"/><circle cx="52" cy="16" r="1.6" fill="#fff"/>
    <circle cx="46" cy="24" r="1.6" fill="#fff"/><circle cx="40" cy="16" r="1.6" fill="#fff"/>
  </g>
</svg>
